<?xml version="1.0" standalone="no"?>
<!DOCTYPE svg PUBLIC "-//W3C//DTD SVG 20010904//EN"
 "http://www.w3.org/TR/2001/REC-SVG-20010904/DTD/svg10.dtd">
<svg version="1.0" xmlns="http://www.w3.org/2000/svg"
 width="1152.000000pt" height="1152.000000pt" viewBox="0 0 1152.000000 1152.000000"
 preserveAspectRatio="xMidYMid meet">
<metadata>
Created by potrace 1.14, written by Peter Selinger 2001-2017
</metadata>
<g transform="translate(0.000000,1152.000000) scale(0.100000,-0.100000)"
fill="#000000" stroke="none">
<path d="M5824 11487 c-27 -18 -105 -68 -174 -112 -69 -43 -127 -82 -130 -85
-3 -3 -17 -11 -32 -17 -16 -7 -28 -17 -28 -23 0 -5 -4 -10 -10 -10 -8 0 -62
-33 -150 -90 -170 -111 -232 -150 -239 -150 -5 0 -11 -3 -13 -7 -1 -5 -41 -33
-88 -63 -47 -30 -88 -59 -91 -63 -3 -5 -8 -8 -10 -6 -2 1 -49 -27 -104 -62
-55 -36 -161 -104 -235 -151 -75 -48 -172 -111 -217 -140 -45 -29 -131 -84
-192 -123 -61 -38 -121 -78 -133 -87 -11 -10 -25 -18 -30 -18 -5 0 -14 -5 -21
-11 -7 -6 -64 -44 -127 -85 -63 -41 -122 -79 -130 -84 -101 -67 -222 -144
-250 -160 -46 -27 -402 -257 -417 -270 -7 -5 -24 -15 -38 -22 -14 -6 -25 -15
-25 -20 0 -4 -7 -8 -15 -8 -8 0 -15 -4 -15 -10 0 -5 -5 -10 -11 -10 -5 0 -37
-18 -69 -40 -32 -22 -63 -40 -69 -40 -5 0 -11 -4 -13 -8 -1 -4 -21 -19 -43
-32 -22 -13 -44 -28 -50 -32 -10 -8 -126 -83 -158 -103 -9 -5 -59 -37 -109
-70 -51 -32 -131 -84 -178 -114 -47 -30 -116 -75 -155 -100 -38 -25 -74 -48
-80 -51 -5 -3 -37 -23 -70 -44 -282 -185 -347 -226 -355 -226 -6 0 -10 -4 -10
-10 0 -5 -7 -10 -15 -10 -8 0 -15 -4 -15 -10 0 -5 -11 -12 -25 -16 -14 -3 -25
-9 -25 -13 0 -4 -19 -18 -43 -31 -23 -13 -46 -28 -52 -32 -25 -21 -87 -58 -95
-58 -6 0 -11 -10 -11 -22 -1 -13 -2 -1887 -3 -4166 -1 -4135 -1 -4143 19
-4147 11 -2 78 -3 148 -2 71 1 131 -1 134 -6 2 -4 9 -5 14 -1 14 8 453 9 466
1 6 -4 13 -4 16 0 9 8 451 8 464 0 6 -4 13 -4 16 0 8 8 1411 8 1424 0 6 -4 13
-4 16 0 9 8 451 8 464 0 6 -4 13 -4 16 -1 8 8 451 9 464 1 6 -4 13 -4 16 0 9
8 451 8 464 0 6 -4 13 -4 16 -1 8 8 451 9 464 1 6 -4 13 -4 16 0 9 8 451 8
464 0 6 -4 13 -4 16 0 8 8 1411 8 1424 0 6 -4 13 -4 16 0 9 8 451 8 464 0 6
-4 13 -4 16 -1 8 8 451 9 464 1 6 -4 13 -4 16 0 9 8 451 8 464 0 6 -4 13 -4
16 -1 8 8 451 9 464 1 6 -4 13 -4 16 0 9 8 451 8 464 0 6 -4 13 -4 16 0 9 9
138 9 144 0 2 -4 10 -4 16 0 7 4 30 8 52 8 l40 0 0 4162 0 4161 -83 54 c-46
29 -91 58 -100 63 -9 6 -48 31 -87 56 -38 25 -106 69 -150 98 -44 28 -87 55
-95 61 -115 76 -261 170 -266 170 -3 0 -12 6 -19 13 -26 23 -40 33 -55 40 -27
14 -111 67 -120 77 -3 3 -17 11 -32 19 -15 8 -36 22 -45 31 -10 9 -25 19 -33
22 -17 7 -179 111 -197 127 -7 6 -15 11 -17 11 -3 0 -42 25 -87 55 -45 30 -83
55 -86 55 -3 0 -28 16 -54 35 -27 19 -51 35 -54 35 -9 0 -70 44 -73 53 -2 4
-8 7 -13 7 -5 0 -41 22 -81 48 -40 27 -109 72 -153 100 -44 28 -87 56 -95 62
-90 61 -233 150 -240 150 -6 0 -10 4 -10 8 0 5 -12 15 -27 23 -16 8 -32 17
-38 22 -15 11 -79 52 -184 119 -53 34 -99 65 -102 70 -3 6 -10 9 -15 9 -5 -1
-17 6 -27 14 -9 8 -20 15 -23 15 -2 0 -10 5 -17 10 -7 6 -46 32 -87 59 -41 26
-122 79 -180 117 -58 38 -109 71 -115 73 -19 7 -100 65 -103 73 -2 4 -8 8 -14
8 -5 0 -29 14 -53 30 -24 17 -48 30 -54 30 -6 0 -11 4 -11 8 0 5 -10 14 -22
21 -13 6 -36 20 -53 31 -16 11 -40 25 -52 31 -13 7 -23 16 -23 21 0 4 -6 8
-14 8 -8 0 -21 6 -28 13 -7 7 -55 40 -106 72 -51 33 -105 68 -120 77 -15 10
-34 21 -42 25 -15 7 -28 17 -55 41 -7 6 -16 12 -19 12 -4 0 -263 167 -326 210
-47 32 -187 121 -200 127 -8 4 -24 15 -34 25 -11 10 -23 18 -27 18 -3 0 -39
22 -80 48 -41 27 -79 51 -85 55 -6 3 -33 -8 -60 -26z m138 -1181 c46 -30 94
-63 108 -73 14 -10 27 -18 30 -18 5 -1 90 -56 281 -182 52 -35 100 -63 106
-63 6 0 14 -7 17 -16 3 -8 10 -13 15 -10 5 4 11 3 13 -1 1 -5 28 -24 58 -44
30 -19 96 -62 145 -94 50 -32 119 -77 155 -101 216 -140 298 -192 320 -204 14
-7 27 -16 30 -19 11 -13 70 -51 80 -51 5 0 10 -4 10 -10 0 -5 7 -10 15 -10 8
0 15 -4 15 -10 0 -5 5 -10 10 -10 6 0 51 -27 101 -60 50 -33 93 -60 95 -60 3
0 10 -5 17 -11 24 -20 332 -220 350 -226 9 -3 17 -9 17 -14 0 -5 7 -9 15 -9 8
0 15 -4 15 -10 0 -5 4 -10 9 -10 5 0 120 -72 255 -160 136 -88 251 -160 255
-160 5 0 11 -4 13 -8 2 -5 35 -28 73 -52 39 -24 79 -51 90 -61 11 -10 22 -18
25 -17 5 0 248 -155 266 -170 5 -5 21 -15 35 -22 13 -7 71 -44 128 -82 57 -37
105 -68 108 -68 5 0 66 -42 73 -51 3 -3 10 -8 16 -10 6 -2 49 -29 97 -59 l86
-55 1 -3406 0 -3405 -3640 0 c-2851 0 -3637 3 -3629 12 7 8 7 14 0 18 -7 4 -7
15 -1 31 6 15 6 27 0 30 -6 3 -5 16 0 31 6 14 7 23 2 21 -4 -3 -7 8 -7 23 0
15 3 26 7 23 5 -2 5 6 0 19 -9 28 -9 59 1 75 4 6 3 14 -3 18 -7 4 -7 12 0 26
6 10 7 19 3 19 -4 0 -8 11 -8 25 0 14 4 25 8 25 4 0 4 8 -2 17 -6 11 -6 24 0
35 6 12 6 18 0 18 -7 0 -7 8 -2 23 5 12 5 31 1 42 -4 11 -3 28 2 38 5 11 5 17
-1 17 -7 0 -7 9 -2 23 5 12 5 32 0 45 -5 14 -5 22 2 22 6 0 6 7 -1 20 -8 15
-8 20 2 20 9 0 9 3 1 11 -8 8 -8 20 -2 36 5 13 6 22 1 20 -4 -3 -7 8 -7 23 0
15 3 26 7 23 5 -2 5 6 0 19 -9 28 -9 59 1 75 4 6 3 14 -3 18 -7 4 -7 12 0 26
6 10 7 19 3 19 -4 0 -8 11 -8 25 0 14 4 25 8 25 4 0 4 8 -2 17 -6 11 -6 24 0
35 6 12 6 18 0 18 -7 0 -7 8 -2 23 5 12 5 31 1 42 -4 11 -3 28 2 38 5 11 5 17
-1 17 -7 0 -7 9 -2 23 5 12 5 32 0 45 -5 14 -5 22 2 22 6 0 6 7 -1 20 -8 15
-8 20 2 20 9 0 9 3 1 11 -8 8 -8 20 -2 36 5 13 6 22 1 20 -4 -3 -7 8 -7 23 0
15 3 26 7 23 5 -2 5 6 0 19 -9 28 -9 59 1 75 4 6 3 14 -3 18 -7 4 -7 12 0 26
6 10 7 19 3 19 -4 0 -8 11 -8 25 0 14 4 25 8 25 4 0 4 8 -2 17 -6 11 -6 24 0
35 6 12 6 18 0 18 -7 0 -7 8 -2 23 5 12 5 31 1 42 -4 11 -3 28 2 38 5 11 5 17
-1 17 -7 0 -7 8 -2 23 5 12 5 32 0 45 -5 13 -5 22 2 22 6 0 6 7 -1 20 -8 15
-8 20 2 20 9 0 9 3 1 11 -8 8 -8 20 -2 36 5 13 6 22 1 20 -4 -3 -7 8 -7 23 0
15 3 26 7 23 5 -2 5 6 0 19 -9 28 -9 59 1 75 4 6 3 14 -3 18 -7 4 -7 12 0 26
6 10 7 19 3 19 -4 0 -8 11 -8 25 0 14 4 25 8 25 4 0 4 8 -2 17 -6 11 -6 24 0
35 6 12 6 18 0 18 -7 0 -7 8 -2 23 5 12 5 31 1 42 -4 11 -3 28 2 38 5 11 5 17
-1 17 -7 0 -7 9 -2 23 5 12 5 32 0 45 -5 14 -5 22 2 22 6 0 6 6 -1 19 -6 12
-7 29 -1 43 4 13 5 32 1 43 -4 11 -3 25 2 32 5 7 5 14 -2 18 -7 4 -7 12 0 26
7 12 7 19 1 19 -7 0 -7 8 -2 23 5 12 5 31 1 42 -4 11 -3 25 2 32 6 7 5 14 -2
18 -6 3 -8 11 -4 16 8 13 11 79 4 79 -3 0 -5 15 -5 34 0 19 3 32 7 29 5 -2 4
7 -2 21 -6 18 -6 26 1 26 7 0 7 6 0 17 -6 11 -6 24 0 35 6 12 6 18 0 18 -7 0
-7 8 -1 24 5 13 7 26 4 29 -9 8 -10 77 -2 77 5 0 5 8 -1 17 -6 11 -6 24 0 35
6 12 6 18 0 18 -7 0 -7 9 -2 23 5 12 5 32 0 45 -5 14 -5 22 2 22 6 0 7 5 4 11
-11 16 -12 69 -3 69 5 0 4 9 -2 19 -6 12 -7 29 -1 43 4 13 5 32 1 43 -4 11 -3
25 2 32 5 7 5 14 -2 18 -7 4 -7 12 0 26 7 12 7 19 1 19 -7 0 -7 8 -2 22 5 13
5 32 1 43 -4 11 -3 25 2 32 6 7 5 14 -2 18 -6 3 -8 11 -4 16 8 13 11 79 4 79
-8 0 -5 44 3 57 4 7 3 14 -3 18 -6 4 -7 12 -1 24 6 10 6 23 1 31 -5 8 -4 22 1
32 6 12 6 18 0 18 -7 0 -7 8 -1 24 5 13 7 26 4 29 -9 8 -10 77 -2 77 5 0 5 8
-1 17 -6 11 -6 24 0 35 6 12 6 18 0 18 -7 0 -7 9 -2 23 5 12 5 32 0 45 -5 14
-5 22 2 22 6 0 6 6 1 18 -5 9 -6 26 -2 37 4 11 4 30 -1 43 -5 12 -5 32 0 45 5
12 5 31 1 42 -4 11 -3 25 2 32 5 7 5 14 -2 18 -7 4 -7 12 0 26 7 12 7 19 1 19
-7 0 -7 8 -2 23 5 12 5 31 1 42 -4 11 -3 25 2 32 6 7 5 14 -2 18 -6 3 -8 11
-4 16 8 13 11 79 4 79 -3 0 -5 15 -5 34 0 19 3 32 7 29 5 -2 4 7 -2 21 -6 18
-6 26 1 26 7 0 7 6 0 17 -6 11 -6 24 0 35 6 12 6 18 0 18 -7 0 -7 8 -1 24 5
13 7 26 4 29 -9 8 -10 77 -2 77 5 0 5 8 -1 17 -6 11 -6 24 0 35 6 12 6 18 0
18 -7 0 -7 9 -2 23 5 12 5 32 0 45 -5 14 -5 22 2 22 6 0 7 5 4 11 -11 16 -12
69 -3 69 5 0 4 9 -2 19 -6 12 -7 29 -1 43 4 13 5 32 1 43 -4 11 -3 25 2 32 5
7 5 14 -2 18 -7 4 -7 12 0 26 7 12 7 19 1 19 -7 0 -7 8 -2 23 5 12 5 31 1 42
-4 11 -3 25 2 32 6 7 5 14 -2 18 -6 3 -8 11 -4 16 8 13 11 79 4 79 -8 0 -5 44
3 57 4 7 3 14 -3 18 -6 4 -7 12 -1 24 6 10 6 23 1 31 -5 8 -4 22 1 32 6 12 6
18 0 18 -7 0 -7 8 -1 24 5 13 7 26 4 29 -9 8 -10 77 -2 77 5 0 5 8 -1 17 -6
11 -6 24 0 35 6 12 6 18 0 18 -7 0 -7 9 -2 23 5 12 5 32 0 45 -5 14 -5 22 2
22 6 0 6 6 1 18 -5 9 -6 26 -2 37 4 11 4 30 -1 43 -5 12 -5 32 0 45 5 12 5 31
1 42 -4 11 -3 25 2 32 5 7 5 14 -2 18 -7 4 -7 12 0 26 7 12 7 19 1 19 -7 0 -7
8 -2 23 5 12 5 31 1 42 -4 11 -3 25 2 32 5 7 5 14 -2 18 -6 4 -7 12 -1 23 5 9
9 22 9 27 -1 10 80 73 95 74 4 1 30 17 57 36 27 19 52 35 54 35 5 0 122 76
166 107 14 10 49 32 77 50 29 17 60 39 69 47 8 9 19 14 24 11 5 -3 10 -1 12 3
1 5 35 29 73 53 39 23 72 46 75 49 12 13 151 100 160 100 5 0 10 5 10 10 0 6
6 10 13 10 7 0 23 9 35 20 12 11 24 20 27 20 3 0 46 27 95 60 49 33 92 60 95
60 3 0 11 5 18 11 25 22 318 209 327 209 6 0 10 4 10 8 0 5 12 15 27 23 29 15
181 112 198 127 6 4 17 11 25 15 19 9 53 30 60 38 3 3 30 20 60 38 30 19 57
37 60 41 3 4 15 10 28 14 12 4 22 12 22 17 0 5 7 9 15 9 8 0 15 5 15 10 0 6 7
10 15 10 8 0 15 3 15 8 0 4 9 12 21 17 11 6 100 62 197 125 97 63 236 152 307
199 237 153 270 175 276 184 3 5 10 8 14 6 4 -1 14 3 24 10 59 42 271 179 271
175 0 -3 9 4 20 14 11 10 33 25 48 33 15 8 33 20 40 27 7 6 17 12 22 12 5 0
15 6 22 13 7 7 56 39 108 72 52 33 124 79 160 102 36 24 66 43 67 43 1 0 39
-24 85 -54z"/>
<path d="M5807 7803 c-1 -1 -34 -4 -73 -7 -68 -6 -154 -21 -269 -50 -16 -3
-88 -27 -105 -33 -8 -4 -17 -7 -20 -8 -134 -46 -340 -179 -466 -301 -164 -161
-280 -344 -351 -554 -14 -41 -27 -82 -28 -90 -2 -8 -4 -15 -5 -15 -2 0 -7 -23
-15 -70 -4 -22 -9 -47 -10 -55 -17 -88 -23 -301 -12 -410 4 -30 7 -55 7 -55 3
0 22 -98 24 -122 0 -13 4 -23 7 -23 3 0 6 -6 6 -12 2 -44 86 -248 137 -333 43
-71 98 -149 108 -153 4 -2 8 -7 8 -12 0 -24 164 -187 255 -254 22 -17 42 -33
45 -36 11 -14 158 -96 235 -132 l80 -38 2 -982 c1 -541 2 -1017 3 -1058 l0
-75 667 1 668 1 2 476 2 476 -157 0 c-86 0 -167 0 -179 0 l-21 1 -1 574 0 574
52 22 c104 45 142 64 161 79 10 9 20 15 22 13 7 -5 164 101 164 110 0 4 5 8
10 8 24 0 188 164 255 255 17 22 33 42 38 43 4 2 7 8 7 14 0 5 11 24 25 42 14
18 25 36 25 39 0 3 13 28 29 56 16 27 27 52 24 55 -4 3 -1 6 5 6 7 0 12 9 12
20 0 11 5 20 12 20 6 0 8 3 5 7 -4 3 -2 12 4 20 6 7 8 13 4 13 -4 0 -3 6 3 13
9 11 47 130 58 181 30 143 37 196 38 316 1 102 -10 226 -28 305 -21 94 -28
121 -47 172 -11 32 -23 65 -26 73 -4 8 -7 17 -7 20 -12 51 -154 282 -222 360
-61 71 -183 187 -228 217 -23 16 -43 31 -46 34 -26 30 -289 169 -321 169 -8 0
-19 4 -25 8 -21 20 -232 68 -339 78 -60 6 -205 11 -208 7z m128 -1017 c28 -3
64 -10 80 -15 38 -11 120 -55 140 -74 8 -9 26 -24 39 -34 29 -24 94 -124 100
-155 3 -13 5 -24 5 -25 1 -2 1 -5 2 -8 0 -2 5 -19 10 -37 12 -42 11 -180 -1
-195 -2 -2 -3 -6 -4 -10 -6 -29 -40 -103 -47 -103 -5 0 -9 -7 -9 -15 0 -25
-114 -129 -180 -164 -59 -32 -101 -43 -162 -45 -16 -1 -28 -5 -28 -9 0 -5 -5
-5 -12 -1 -6 4 -26 8 -43 9 -104 7 -234 86 -315 190 -23 30 -58 108 -71 159
-23 92 6 253 58 326 79 109 209 194 315 206 29 3 55 8 57 10 2 2 7 2 10 0 3
-2 29 -6 56 -10z"/>
</g>
</svg>
