<svg width="35" height="35" viewBox="0 0 35 35" fill="none" xmlns="http://www.w3.org/2000/svg">
<path d="M33.5346 7.12021C33.5346 6.83006 33.2994 6.59521 33.0096 6.59521H19.1465H17.569H1.98984C1.69969 6.59521 1.46484 6.83006 1.46484 7.12021V16.1779C1.46484 16.2031 1.46869 16.2272 1.47219 16.2514C1.46869 16.2755 1.46484 16.2997 1.46484 16.3249V27.8798C1.46484 28.1696 1.69969 28.4048 1.98984 28.4048H17.569H33.0096C33.2994 28.4048 33.5346 28.1696 33.5346 27.8798V16.2703C33.5346 16.2545 33.5315 16.2395 33.5301 16.2241C33.5315 16.2087 33.5346 16.1936 33.5346 16.1779V7.12021ZM19.1465 7.64521H32.4846V15.6529H28.2769L25.7415 11.3804C25.6467 11.2212 25.4752 11.1235 25.29 11.1235C25.1049 11.1235 24.933 11.2212 24.8385 11.3804L22.3024 15.6529H19.1465H18.094V7.64521H19.1465ZM2.51484 7.64521H17.044V15.6529H12.6974L10.1609 11.3804C10.0661 11.2208 9.89459 11.1235 9.70944 11.1235C9.52394 11.1235 9.35244 11.2212 9.25794 11.3804L6.72289 15.6529H2.51484V7.64521ZM2.51484 16.7029H7.02179C7.20694 16.7029 7.37879 16.6052 7.47329 16.446L9.70979 12.6772L11.947 16.446C12.0418 16.6052 12.2133 16.7029 12.3985 16.7029H17.044V27.3551H2.51484V16.7029ZM18.094 27.3551V16.7029H19.1465H22.601C22.7861 16.7029 22.958 16.6052 23.0525 16.446L25.29 12.6772L27.5265 16.446C27.6214 16.6052 27.7929 16.7029 27.978 16.7029H32.485V27.3551H18.094Z" fill="white"/>
<path d="M27.1917 19.6826H23.3883C23.0985 19.6826 22.8633 19.9178 22.8633 20.2076V24.212C22.8633 24.5018 23.0985 24.737 23.3883 24.737H27.1917C27.4815 24.737 27.7167 24.5018 27.7167 24.212V20.2076C27.7167 19.9178 27.4819 19.6826 27.1917 19.6826ZM26.6667 23.6873H23.9133V20.733H26.6667V23.6873Z" fill="white"/>
<path d="M11.682 19.6821H7.87754C7.58739 19.6821 7.35254 19.9173 7.35254 20.2071V24.2118C7.35254 24.5016 7.58739 24.7368 7.87754 24.7368H11.682C11.9722 24.7368 12.207 24.5016 12.207 24.2118V20.2071C12.207 19.9173 11.9722 19.6821 11.682 19.6821ZM11.157 23.6872H8.40254V20.7325H11.157V23.6872Z" fill="white"/>
</svg>
