<svg width="160" height="16" viewBox="0 0 160 16" fill="none" xmlns="http://www.w3.org/2000/svg">
<path d="M5.49692 14.4766C5.74301 14.8594 6.31723 14.8594 6.56332 14.4766C10.5555 8.73438 11.2938 8.13281 11.2938 6C11.2938 3.10156 8.94223 0.75 6.04379 0.75C3.11801 0.75 0.793793 3.10156 0.793793 6C0.793793 8.13281 1.50473 8.73438 5.49692 14.4766ZM6.04379 8.1875C4.81332 8.1875 3.85629 7.23047 3.85629 6C3.85629 4.79688 4.81332 3.8125 6.04379 3.8125C7.24692 3.8125 8.23129 4.79688 8.23129 6C8.23129 7.23047 7.24692 8.1875 6.04379 8.1875ZM20.1785 13V3.2H22.3345V7.484L26.3105 3.2H28.9145L24.9245 7.358L29.0965 13H26.5065L23.4685 8.828L22.3345 10.004V13H20.1785ZM30.6851 13L34.8851 3.13H36.8731L41.0731 13H38.8191L37.9231 10.802H33.7791L32.8831 13H30.6851ZM34.5491 8.898H37.1531L35.8511 5.72L34.5491 8.898ZM43.7057 13V3.2H45.8617V7.484L49.8377 3.2H52.4417L48.4517 7.358L52.6237 13H50.0337L46.9957 8.828L45.8617 10.004V13H43.7057ZM59.3335 15.044V11.054H60.2575C60.6401 10.1673 60.9155 9.22933 61.0835 8.24C61.2515 7.25067 61.3355 5.95333 61.3355 4.348V3.2H68.4615V11.054H69.6375L69.3575 15.044H67.5515V13H61.4195L61.2795 15.044H59.3335ZM66.3055 5.146H63.4075V6.14C63.4075 7.988 63.1135 9.626 62.5255 11.054H66.3055V5.146ZM80.7469 11.698C79.7576 12.678 78.5162 13.168 77.0229 13.168C75.5296 13.168 74.2882 12.678 73.2989 11.698C72.3189 10.718 71.8289 9.51867 71.8289 8.1C71.8289 6.69067 72.3236 5.496 73.3129 4.516C74.3116 3.52667 75.5576 3.032 77.0509 3.032C78.5442 3.032 79.7809 3.522 80.7609 4.502C81.7502 5.482 82.2449 6.68133 82.2449 8.1C82.2449 9.50933 81.7456 10.7087 80.7469 11.698ZM74.9229 10.284C75.4829 10.8813 76.1922 11.18 77.0509 11.18C77.9096 11.18 78.6142 10.886 79.1649 10.298C79.7156 9.70067 79.9909 8.968 79.9909 8.1C79.9909 7.24133 79.7109 6.51333 79.1509 5.916C78.5909 5.31867 77.8816 5.02 77.0229 5.02C76.1642 5.02 75.4596 5.31867 74.9089 5.916C74.3582 6.504 74.0829 7.232 74.0829 8.1C74.0829 8.95867 74.3629 9.68667 74.9229 10.284ZM87.4334 5.146V6.854H90.0234C91.1154 6.854 91.9601 7.12933 92.5574 7.68C93.1641 8.22133 93.4674 8.95867 93.4674 9.892C93.4674 10.8813 93.1454 11.6467 92.5014 12.188C91.8574 12.7293 90.9614 13 89.8134 13H85.2774V3.2H92.7954V5.146H87.4334ZM89.7994 8.646H87.4334V11.054H89.8134C90.8121 11.054 91.3114 10.6387 91.3114 9.808C91.3114 9.03333 90.8074 8.646 89.7994 8.646ZM96.3642 13V3.2H100.368C101.526 3.2 102.44 3.51267 103.112 4.138C103.784 4.76333 104.12 5.58933 104.12 6.616C104.12 7.708 103.747 8.55733 103 9.164C102.254 9.76133 101.306 10.06 100.158 10.06H98.5202V13H96.3642ZM98.5202 8.142H100.228C100.76 8.142 101.176 8.002 101.474 7.722C101.782 7.442 101.936 7.078 101.936 6.63C101.936 6.154 101.782 5.79 101.474 5.538C101.166 5.27667 100.737 5.146 100.186 5.146H98.5202V8.142ZM105.996 13L110.196 3.13H112.184L116.384 13H114.13L113.234 10.802H109.09L108.194 13H105.996ZM109.86 8.898H112.464L111.162 5.72L109.86 8.898ZM121.298 13V5.188H118.316V3.2H126.436V5.188H123.454V13H121.298ZM129.214 13V3.2H131.37V6.532H133.456C134.576 6.532 135.454 6.82133 136.088 7.4C136.723 7.96933 137.04 8.73933 137.04 9.71C137.04 10.718 136.704 11.5207 136.032 12.118C135.37 12.706 134.464 13 133.316 13H129.214ZM133.274 8.38H131.37V11.054H133.288C134.362 11.054 134.898 10.5967 134.898 9.682C134.898 8.814 134.357 8.38 133.274 8.38ZM144.401 13.168C142.964 13.168 141.764 12.6827 140.803 11.712C139.851 10.732 139.375 9.528 139.375 8.1C139.375 6.68133 139.856 5.482 140.817 4.502C141.778 3.522 143.001 3.032 144.485 3.032C145.334 3.032 146.048 3.172 146.627 3.452C147.206 3.72267 147.756 4.11467 148.279 4.628L146.991 6.112C146.571 5.72933 146.174 5.454 145.801 5.286C145.437 5.10867 144.994 5.02 144.471 5.02C143.65 5.02 142.968 5.31867 142.427 5.916C141.895 6.504 141.629 7.232 141.629 8.1C141.629 8.95867 141.895 9.68667 142.427 10.284C142.968 10.8813 143.65 11.18 144.471 11.18C144.994 11.18 145.446 11.0867 145.829 10.9C146.212 10.7133 146.618 10.424 147.047 10.032L148.419 11.502C147.887 12.0713 147.308 12.4913 146.683 12.762C146.067 13.0327 145.306 13.168 144.401 13.168ZM159.021 3.2V13H156.865V9.864H155.171L153.071 13H150.551L152.945 9.5C151.545 8.97733 150.845 7.95533 150.845 6.434C150.845 5.426 151.172 4.63733 151.825 4.068C152.488 3.48933 153.393 3.2 154.541 3.2H159.021ZM154.681 7.96H156.865V5.146H154.723C154.191 5.146 153.776 5.26733 153.477 5.51C153.178 5.75267 153.029 6.10733 153.029 6.574C153.029 6.994 153.174 7.33 153.463 7.582C153.762 7.834 154.168 7.96 154.681 7.96Z" fill="#219653"/>
</svg>
