<svg width="30" height="36" viewBox="0 0 30 36" fill="none" xmlns="http://www.w3.org/2000/svg">
<path d="M29.7019 35.3071H0.924805V9.29134L15.3599 0L29.7019 9.29134V35.3071ZM3.99809 32.2409H26.7217V10.9638L15.3599 3.62362L3.99809 10.9638V32.2409V32.2409Z" fill="white"/>
<path d="M17.9672 26.852H13.7764V19.0472H16.8496V23.8787H17.9672V26.852Z" fill="white"/>
<path d="M15.3599 20.5339C12.9385 20.5339 10.8896 18.5827 10.8896 16.074C10.8896 13.5654 12.8454 11.6142 15.3599 11.6142C17.7813 11.6142 19.8301 13.5654 19.8301 16.074C19.8301 18.5827 17.7813 20.5339 15.3599 20.5339ZM15.3599 14.7732C14.6148 14.7732 13.9629 15.4236 13.9629 16.1669C13.9629 16.9102 14.6148 17.5606 15.3599 17.5606C16.1049 17.5606 16.7568 16.9102 16.7568 16.1669C16.7568 15.3307 16.1049 14.7732 15.3599 14.7732Z" fill="white"/>
</svg>
