<svg width="61" height="59" viewBox="0 0 61 59" fill="none" xmlns="http://www.w3.org/2000/svg">
<g clip-path="url(#clip0)">
<path d="M44.7019 35.3071H15.9248V9.29134L30.3599 0L44.7019 9.29134V35.3071ZM18.9981 32.2409H41.7217V10.9638L30.3599 3.62362L18.9981 10.9638V32.2409Z" fill="white"/>
<path d="M32.9672 26.852H28.7764V19.0472H31.8496V23.8787H32.9672V26.852Z" fill="white"/>
<path d="M30.3599 20.5339C27.9385 20.5339 25.8896 18.5827 25.8896 16.074C25.8896 13.5654 27.8454 11.6142 30.3599 11.6142C32.7813 11.6142 34.8301 13.5654 34.8301 16.074C34.8301 18.5827 32.7813 20.5339 30.3599 20.5339ZM30.3599 14.7732C29.6148 14.7732 28.9629 15.4236 28.9629 16.1669C28.9629 16.9102 29.6148 17.5606 30.3599 17.5606C31.1049 17.5606 31.7568 16.9102 31.7568 16.1669C31.7568 15.3307 31.1049 14.7732 30.3599 14.7732Z" fill="white"/>
<path d="M4.93588 58.8142H0V50.3591H2.14198V56.863H4.93588V58.8142Z" fill="white"/>
<path d="M6.14648 50.3591H8.28847V58.8142H6.14648V50.3591Z" fill="white"/>
<path d="M14.435 52.1251H11.3617V53.7976H14.3419V55.6559H11.3617V58.8149H9.21973V50.2669H14.435V52.1251Z" fill="white"/>
<path d="M20.5821 52.1251H17.4157V53.4259H20.489V55.1913H17.5088V56.8637H20.6752V58.722H15.46V50.2669H20.6752V52.1251H20.5821Z" fill="white"/>
<path d="M25.3315 56.1197C25.9834 56.9559 26.6353 57.0488 27.0079 57.0488C27.4735 57.0488 27.846 56.7701 27.846 56.3055C27.846 55.6551 27.2872 55.4693 26.7285 55.2835C25.7972 55.0976 24.1208 54.4472 24.1208 52.6819C24.1208 50.9165 25.6109 50.1732 27.0079 50.1732C28.0323 50.1732 29.0567 50.6378 29.7086 51.7528L28.3117 52.589C27.9391 52.1244 27.5666 51.9386 27.101 51.9386C26.6353 51.9386 26.2628 52.1244 26.2628 52.589C26.2628 53.0535 26.8216 53.2394 27.2872 53.3323C28.5911 53.7039 30.0811 54.3543 29.988 56.3055C29.8949 58.0709 28.4048 58.8142 26.9147 58.8142C25.9834 58.8142 24.6796 58.4425 23.9346 57.0488L25.3315 56.1197Z" fill="white"/>
<path d="M36.4138 50.3591V52.2173H34.4581V58.8142H32.3161V52.2173H30.3604V50.3591H36.4138Z" fill="white"/>
<path d="M43.6783 58.8142H41.2569L39.5806 55.8409H39.3012V58.8142H37.1592V50.3591H40.0462C41.2569 50.3591 42.2813 50.7307 42.8401 51.6598C43.1195 52.1244 43.2126 52.6819 43.2126 53.2394C43.2126 54.2614 42.6538 55.1906 41.5363 55.5622L43.6783 58.8142ZM40.0462 54.0756C40.6981 54.0756 41.0706 53.611 41.0706 53.1465C41.0706 52.6819 40.6981 52.2173 40.0462 52.2173H39.208V54.0756H40.0462Z" fill="white"/>
<path d="M53.0843 54.6338C53.0843 57.3283 51.1286 59.0007 48.7072 59.0007C46.2858 59.0007 44.3301 57.3283 44.3301 54.6338C44.3301 51.9393 46.2858 50.2669 48.7072 50.2669C51.1286 50.1739 53.0843 51.9393 53.0843 54.6338ZM48.7072 57.0495C49.8247 57.0495 50.9423 56.3991 50.9423 54.6338C50.9423 52.8684 49.8247 52.218 48.7072 52.218C47.5896 52.218 46.4721 53.0543 46.4721 54.6338C46.4721 56.2133 47.5896 57.0495 48.7072 57.0495Z" fill="white"/>
<path d="M56.9952 53.7969L57.5539 52.4032L58.6715 50.3591H61.0929L59.044 54.0756L58.1127 55.5622V58.8142H55.8776V55.5622L54.9463 53.9827L52.8975 50.3591H55.3188L56.4364 52.4032L56.9952 53.7969Z" fill="white"/>
</g>
<defs>
<clipPath id="clip0">
<rect width="61" height="59" fill="white"/>
</clipPath>
</defs>
</svg>
