<svg width="50" height="50" fill="none" xmlns="http://www.w3.org/2000/svg"><path d="M20.806 22.612a6.958 6.958 0 00-6.95 6.95 6.958 6.958 0 006.95 6.95 6.957 6.957 0 006.95-6.95 6.958 6.958 0 00-6.95-6.95zm0 12.405a5.461 5.461 0 01-5.455-5.455 5.462 5.462 0 015.455-5.455 5.461 5.461 0 015.456 5.455 5.461 5.461 0 01-5.456 5.455zM6.178 22.612a.747.747 0 00-.747.748v12.404a.747.747 0 101.494 0V23.36a.747.747 0 00-.747-.748zm29.022 0a.747.747 0 00-.747.748v12.404a.748.748 0 001.495 0V23.36a.747.747 0 00-.748-.748z" fill="#3E9E57"/><path d="M47.477 9.538h-36.58a.747.747 0 00-.748.747v3.697H6.801a.747.747 0 00-.748.747v4.11H2.35a.747.747 0 00-.747.747v19.953c0 .413.334.747.747.747h36.58a.748.748 0 00.748-.747v-4.11h3.705a.748.748 0 00.747-.747v-3.696h3.348a.748.748 0 00.748-.748V10.285a.748.748 0 00-.748-.747zM3.097 38.792V20.333h35.085v18.459H3.096zm39.537-4.857h-2.958v-14.35a.747.747 0 00-.747-.747H7.55v-3.362h35.085v18.459zm4.095-4.444h-2.6V14.729a.747.747 0 00-.747-.747H11.644v-2.95h35.085v18.459z" fill="#3E9E57"/></svg>