<svg width="50" height="50" fill="none" xmlns="http://www.w3.org/2000/svg"><path d="M4.095 19.826a.748.748 0 00.922-.516c1.835-6.502 6.85-11.742 13.215-13.905L17.19 8.202a.748.748 0 001.401.522l1.642-4.407a.748.748 0 00-.436-.96l-4.479-1.693a.747.747 0 10-.529 1.398l2.687 1.016C10.78 6.454 5.52 12.024 3.579 18.904a.746.746 0 00.516.922zm15.13 24.92c-6.506-1.842-11.747-6.874-13.9-13.252L8.27 32.54a.747.747 0 10.5-1.408l-4.43-1.574a.746.746 0 00-.953.45l-1.624 4.506a.748.748 0 001.406.507l.916-2.541c2.412 6.599 7.93 11.778 14.734 13.705a.744.744 0 00.922-.515.748.748 0 00-.515-.924zm26.381-14.725a.746.746 0 00-.923.516c-1.836 6.492-6.845 11.724-13.2 13.889l1.297-2.923a.747.747 0 10-1.366-.606l-1.907 4.3a.747.747 0 00.377.984l4.369 1.963a.747.747 0 00.612-1.363l-2.445-1.099c6.599-2.412 11.777-7.93 13.702-14.738a.748.748 0 00-.516-.923zm2.061-15.962a.747.747 0 00-.988.374l-1.18 2.617c-2.467-6.452-7.914-11.504-14.613-13.4a.749.749 0 00-.408 1.438c6.302 1.785 11.418 6.563 13.69 12.656l-2.768-1.23a.746.746 0 10-.607 1.365l4.297 1.912a.744.744 0 00.985-.376l1.967-4.367a.747.747 0 00-.374-.988zM31.04 30.799a.9.9 0 00.069-.075c1.685-2.138 3.197-8.01 3.425-9.5.237-1.564 1.075-6.945 1.075-6.946a.744.744 0 00-.386-.765.758.758 0 00-.86.102c-.007.006-.703.607-3.257 1.603-2.686 1.048-10.258 4.586-10.62 4.757-2.546 1.391-4.128 4.033-4.128 6.895 0 1.988.746 3.802 1.965 5.19l-2.157 2.49a.747.747 0 101.13.98l2.115-2.444a7.835 7.835 0 004.83 1.667c2.793 0 5.385-1.512 6.799-3.954zm-13.188-3.93a6.365 6.365 0 013.308-5.561c.078-.036 7.848-3.668 10.488-4.697l.086-.034-12.427 14.347a6.36 6.36 0 01-1.455-4.054zm6.39 6.39a6.348 6.348 0 01-3.851-1.303l13.354-15.418c-.253 1.63-.56 3.61-.69 4.461-.26 1.71-1.756 6.985-3.074 8.74a.761.761 0 00-.18.215c-1.135 2.038-3.265 3.304-5.56 3.304z" fill="#3E9E57"/></svg>