<svg width="50" height="50" fill="none" xmlns="http://www.w3.org/2000/svg"><path d="M44.406 27.735a2.86 2.86 0 00-4.044-.264l-6.351 5.668a3.137 3.137 0 00-.067-.304c-.282-1.018-1.022-1.724-1.633-1.972-1.26-.508-3.002-.27-4.685-.04-1.114.152-2.267.309-2.988.181-.4-.071-.808-.251-1.28-.46-1.28-.565-3.034-1.338-6.298-.63-1.74.379-3.084 1.35-3.996 2.226v-1.496a.747.747 0 00-.747-.747H5.444a.747.747 0 00-.748.747v16.847c0 .413.335.747.748.747h6.873a.747.747 0 00.747-.747v-3.443c1.653.368 5.18 1.073 7.897 1.073 3.399 0 7.563-.771 10.127-1.876 4.717-2.029 12.485-10.785 13.114-11.5.551-.504.878-1.19.922-1.938a2.868 2.868 0 00-.718-2.072zm-32.837 19.01H6.191V31.392h5.378v15.353zm31.607-16.086a.662.662 0 00-.068.067c-.081.092-8.107 9.21-12.612 11.148-2.397 1.032-6.317 1.754-9.535 1.754-2.733 0-6.487-.791-7.897-1.112v-8.108c.412-.575 1.953-2.519 4.313-3.033 2.788-.605 4.163.002 5.377.538.538.237 1.045.46 1.62.563.954.17 2.168.004 3.454-.172 1.422-.195 3.033-.414 3.922-.055.224.091.607.457.753.985.145.521.016 1.055-.376 1.587l-.627.56c-.006.005-.008.013-.014.018-2.048 1.414-7.588 3.103-10.026 2.91a.747.747 0 00-.114 1.49c.153.013.316.018.489.018 3.273 0 9.752-2.06 11.376-3.96l8.144-7.268c.27-.239.614-.359.978-.336.368.023.705.19.951.47.245.278.369.633.347.999a1.346 1.346 0 01-.455.936zM14.682 10.918h1.655v15.085c0 .413.335.748.747.748h15.833a.748.748 0 00.747-.748V10.918h1.658a.747.747 0 00.449-1.345l-10.452-7.84a.749.749 0 00-.904.006l-10.189 7.84a.747.747 0 00.456 1.339zM24.876 3.27l8.204 6.153h-.163a.747.747 0 00-.747.748v15.085H17.832V10.17a.747.747 0 00-.748-.748h-.205l7.997-6.153z" fill="#3E9E57"/><path d="M22.138 21.698h5.727a.747.747 0 00.748-.748v-8.567a.747.747 0 00-.748-.748h-5.727a.747.747 0 00-.747.748v8.567c0 .413.334.748.747.748zm.747-8.568h4.233v7.073h-4.233V13.13z" fill="#3E9E57"/></svg>