<svg width="50" height="50" fill="none" xmlns="http://www.w3.org/2000/svg"><path d="M16.086 21.146h-4.864a.747.747 0 00-.747.747v4.864c0 .413.334.748.747.748h4.864a.747.747 0 00.747-.748v-4.864a.747.747 0 00-.747-.747zm-.748 4.864H11.97v-3.37h3.37v3.37zm12.092-4.864h-4.863a.747.747 0 00-.748.747v4.864c0 .413.335.748.748.748h4.863a.748.748 0 00.748-.748v-4.864a.748.748 0 00-.748-.747zm-.747 4.864h-3.369v-3.37h3.37v3.37zm11.742-4.864H33.56a.747.747 0 00-.748.747v4.864c0 .413.335.748.748.748h4.864a.748.748 0 00.747-.748v-4.864a.748.748 0 00-.747-.747zm-.748 4.864h-3.369v-3.37h3.37v3.37zm-21.591 6.215h-4.864a.747.747 0 00-.747.747v4.864c0 .412.334.747.747.747h4.864a.747.747 0 00.747-.747v-4.864a.747.747 0 00-.747-.747zm-.748 4.863H11.97V33.72h3.37v3.37zm12.092-4.863h-4.863a.747.747 0 00-.748.747v4.864c0 .412.335.747.748.747h4.863a.748.748 0 00.748-.747v-4.864a.748.748 0 00-.748-.747zm-.747 4.863h-3.369V33.72h3.37v3.37zm11.742-4.863H33.56a.748.748 0 00-.748.747v4.864c0 .412.335.747.748.747h4.864a.748.748 0 00.747-.747v-4.864a.748.748 0 00-.747-.747zm-.748 4.863h-3.369V33.72h3.37v3.37z" fill="#3E9E57"/><path d="M44.343 6.674h-4.936l-.018.002V5.68a2.956 2.956 0 00-2.953-2.952 2.956 2.956 0 00-2.952 2.952v.994h-5.562V5.68a2.956 2.956 0 00-2.953-2.952 2.956 2.956 0 00-2.952 2.952v.994h-5.563V5.68a2.956 2.956 0 00-2.952-2.952 2.956 2.956 0 00-2.953 2.952v.994H5.607a.747.747 0 00-.748.747v38.736c0 .413.335.748.748.748h38.736a.748.748 0 00.748-.748V7.421a.747.747 0 00-.748-.747zM34.98 5.68a1.46 1.46 0 012.915 0v4.124a1.46 1.46 0 01-2.916 0V5.68zM24.97 4.222a1.46 1.46 0 011.458 1.458v4.124a1.46 1.46 0 01-1.458 1.458 1.46 1.46 0 01-1.457-1.458V7.491c.002-.024.006-.046.006-.07 0-.025-.005-.047-.006-.07V5.68a1.46 1.46 0 011.457-1.459zM12.044 5.68a1.46 1.46 0 011.458-1.458A1.46 1.46 0 0114.96 5.68v4.124a1.46 1.46 0 01-1.458 1.458 1.46 1.46 0 01-1.458-1.458V5.68zm31.552 39.73H6.354V8.168h4.196v1.637a2.956 2.956 0 002.953 2.952 2.956 2.956 0 002.952-2.952V8.169h5.563v1.636a2.956 2.956 0 002.952 2.952 2.956 2.956 0 002.953-2.952V8.169h5.562v1.636a2.956 2.956 0 002.952 2.952 2.956 2.956 0 002.953-2.952V8.166l.018.002h4.19V45.41z" fill="#3E9E57"/></svg>