<svg width="50" height="50" fill="none" xmlns="http://www.w3.org/2000/svg"><path d="M29.34 19.66a.728.728 0 00.19-.13l12-12a.75.75 0 00-1.06-1.06l-12 12a.734.734 0 00-.14.21c-3.104-2.505-7.804-2.18-10.83.865L2.055 31a.752.752 0 00-.09 1.125l14.346 14.65a.749.749 0 00.535.225h.06a.748.748 0 00.555-.315L28.96 30.5a8.08 8.08 0 002.29-5.765 7.88 7.88 0 00-1.91-5.075zM16.756 45.085L12.88 41.13a.718.718 0 00.15-.1l7-7a.75.75 0 00-1.06-1.06l-7 7a.726.726 0 00-.09.14l-3.445-3.5a.694.694 0 00.095-.065l7-7a.75.75 0 00-1.06-1.06l-7 7a.707.707 0 00-.055.08l-3.775-3.87L18 21.055l9.22 9.225h.03L16.756 45.085zm11.415-16l-9-9c2.614-2.13 6.35-2.125 8.665.13a6.396 6.396 0 011.934 4.535 6.575 6.575 0 01-1.6 4.36v-.025zm13.034-8.675a4.794 4.794 0 01.5 4.265c-1 2.74-4.24 4.225-7.24 3.3a.75.75 0 10-.44 1.435 7.656 7.656 0 002.25.335c3 0 5.835-1.77 6.845-4.565a6.285 6.285 0 00-.655-5.59.75.75 0 10-1.26.815v.005zm3.545 11.885a.75.75 0 00-.96.455 5.26 5.26 0 01-3.145 3.085c-2.89 1.11-6.245-.07-7.475-2.625a.748.748 0 00-1.404.062.75.75 0 00.054.588c1.165 2.425 3.815 3.885 6.585 3.885a7.758 7.758 0 002.775-.5 6.753 6.753 0 004-4 .75.75 0 00-.43-.95zm-4.955 10.25a6.026 6.026 0 01-4.6 1.125 5.747 5.747 0 01-3.785-2.31 4.876 4.876 0 01-.825-3.725.749.749 0 10-1.475-.275 6.36 6.36 0 001.075 4.86 7.25 7.25 0 004.77 2.925c.403.066.811.1 1.22.1a7.5 7.5 0 004.53-1.5.75.75 0 10-.91-1.19v-.01z" fill="#3E9E57"/></svg>