<svg width="50" height="50" fill="none" xmlns="http://www.w3.org/2000/svg"><path d="M25.144 28.766c-9.716 0-17.622 7.906-17.622 17.623 0 .413.335.748.748.748h33.748a.748.748 0 00.747-.748c0-9.717-7.904-17.623-17.621-17.623zM9.034 45.642c.392-8.548 7.468-15.381 16.11-15.381s15.718 6.833 16.11 15.381H9.033zM24.85 6.666c-5.595 0-10.146 4.551-10.146 10.146 0 5.594 4.552 10.145 10.146 10.145 5.595 0 10.145-4.551 10.145-10.145 0-5.595-4.551-10.146-10.145-10.146zm0 18.797c-4.77 0-8.651-3.881-8.651-8.651s3.88-8.651 8.65-8.651c4.77 0 8.652 3.88 8.652 8.65 0 4.77-3.881 8.652-8.651 8.652z" fill="#3E9E57"/><path d="M12.524 22.366a.747.747 0 00.748-.748v-9.672a.763.763 0 00-.014-.14A12.556 12.556 0 0124.85 4.183c5.18 0 9.757 3.09 11.702 7.88v9.5a12.574 12.574 0 01-2.715 4.125.747.747 0 101.063 1.05 14.061 14.061 0 002.937-4.371h.525a5.59 5.59 0 005.583-5.583 5.59 5.59 0 00-5.583-5.584h-.557C35.56 6.017 30.532 2.689 24.85 2.689A14.04 14.04 0 0011.894 11.2h-.432a5.59 5.59 0 00-5.583 5.584 5.59 5.59 0 005.583 5.583h1.062zm29.926-5.584a4.093 4.093 0 01-4.088 4.089h-.315v-8.177h.315a4.093 4.093 0 014.088 4.088zm-35.076 0a4.093 4.093 0 014.088-4.088h.315v8.177h-.315a4.093 4.093 0 01-4.088-4.089z" fill="#3E9E57"/></svg>