<svg width="24" height="24" fill="none" xmlns="http://www.w3.org/2000/svg"><path opacity=".5" d="M23.625 12C23.625 5.625 18.375.375 12 .375 5.578.375.375 5.625.375 12c0 6.422 5.203 11.625 11.625 11.625 6.375 0 11.625-5.203 11.625-11.625zm-6.656-1.64c-.188 1.124-.797 1.687-1.64 1.874 1.171.61 1.733 1.5 1.171 3.094-.703 1.969-2.297 2.156-4.5 1.735l-.516 2.109-1.265-.328.515-2.063c-.328-.093-.703-.187-1.03-.281l-.517 2.11-1.265-.329.516-2.11a6.242 6.242 0 00-.891-.233l-1.688-.422.657-1.454s.937.235.89.235c.375.094.563-.14.61-.328l.843-3.328c.047 0 .094 0 .141.046-.047-.046-.094-.046-.14-.046l.562-2.391c.047-.281-.047-.61-.563-.75l-.937-.234.328-1.36 1.781.422v.047c.235.047.516.094.797.188l.516-2.11 1.312.328-.515 2.063c.328.047.656.14.984.234l.516-2.062 1.265.328-.515 2.11c1.64.515 2.812 1.359 2.578 2.905zm-2.907 4.078c.376-1.641-2.39-2.063-3.234-2.297l-.703 2.812c.844.235 3.516 1.078 3.938-.515zm.376-4.079c.374-1.5-1.922-1.875-2.672-2.015l-.61 2.531c.703.188 2.906.89 3.281-.516z" fill="#fff"/></svg>