<svg width="35" height="35" fill="none" xmlns="http://www.w3.org/2000/svg"><path d="M28.803 3.23H6.11a.523.523 0 00-.524.523v27.232c0 .29.234.524.524.524h22.693a.525.525 0 00.524-.524V3.753a.524.524 0 00-.524-.524zm-.524 27.231H6.633V4.277H28.28V30.46z" fill="#3E9E57"/><path d="M15.885 11.608h8.38a.524.524 0 100-1.047h-8.38a.523.523 0 100 1.047zm0 6.285h8.38a.524.524 0 000-1.048h-8.38a.523.523 0 100 1.048zm0 6.284h8.38a.524.524 0 000-1.047h-8.38a.524.524 0 100 1.047zm-5.361-11.222a1.904 1.904 0 001.419.383 1.907 1.907 0 001.274-.732c.313-.406.45-.91.383-1.419a1.908 1.908 0 00-.732-1.274 1.906 1.906 0 00-1.419-.383 1.908 1.908 0 00-1.274.732c-.313.406-.45.91-.383 1.419.066.508.326.96.732 1.274zm.48-2.053a.867.867 0 01.694-.34.867.867 0 01.864.76.868.868 0 01-.175.645.867.867 0 01-.579.333.867.867 0 01-.645-.175.867.867 0 01-.333-.579.866.866 0 01.175-.644zm.692 8.388c1.059 0 1.92-.863 1.92-1.921a1.921 1.921 0 10-1.92 1.92zm0-2.794a.874.874 0 010 1.746.874.874 0 010-1.746zm0 9.078c1.059 0 1.92-.862 1.92-1.92a1.921 1.921 0 10-1.92 1.92zm0-2.793a.874.874 0 010 1.745.874.874 0 010-1.745z" fill="#3E9E57"/></svg>