<svg width="35" height="35" fill="none" xmlns="http://www.w3.org/2000/svg"><path d="M30.012 5.6H16.363a.525.525 0 00-.525.526v6.91L4.81 17.006a.525.525 0 00-.347.495v11.372c0 .29.235.525.525.525l11.375.002h13.649c.29 0 .524-.235.524-.525V6.125a.525.525 0 00-.524-.524zm-24.5 12.27l10.326-3.718V28.35l-10.325-.002V17.87zm23.974 10.48H16.889V6.65h12.598v21.7z" fill="#3E9E57"/><path d="M20.91 15.75h4.55c.29 0 .525-.235.525-.525v-4.55a.525.525 0 00-.525-.525h-4.55a.525.525 0 00-.524.525v4.55c0 .29.235.525.525.525zm.526-4.55h3.5v3.5h-3.5v-3.5zm4.026 8.05h-4.548a.525.525 0 00-.525.525v4.55c0 .29.235.524.525.524h4.548c.29 0 .525-.235.525-.525v-4.549a.525.525 0 00-.525-.525zm-.525 4.55H21.44v-3.5h3.498v3.5z" fill="#3E9E57"/></svg>