<svg width="35" height="35" fill="none" xmlns="http://www.w3.org/2000/svg"><path d="M31.085 19.414a2.002 2.002 0 00-2.831-.185l-4.446 3.968a2.274 2.274 0 00-.046-.213c-.198-.712-.716-1.206-1.143-1.38-.882-.356-2.102-.19-3.28-.028-.78.107-1.587.216-2.092.127-.28-.05-.565-.176-.896-.322-.896-.396-2.124-.937-4.409-.442-1.217.266-2.158.946-2.796 1.559V21.45a.523.523 0 00-.523-.523H3.81a.523.523 0 00-.523.523v11.793c0 .288.234.523.523.523h4.812a.523.523 0 00.523-.523v-2.41c1.157.257 3.625.75 5.528.75 2.379 0 5.294-.54 7.088-1.312 3.302-1.42 8.74-7.55 9.18-8.051a1.98 1.98 0 00.645-1.356 2.008 2.008 0 00-.502-1.45zM8.099 32.721H4.334V21.974H8.1v10.747zm22.125-11.26a.466.466 0 00-.048.047c-.056.065-5.674 6.447-8.828 7.804-1.678.722-4.422 1.227-6.674 1.227-1.914 0-4.541-.553-5.528-.778v-5.676c.288-.402 1.366-1.763 3.019-2.123 1.951-.423 2.914.002 3.764.377.376.166.731.322 1.134.394.667.12 1.517.003 2.417-.12.996-.137 2.124-.29 2.745-.039.158.064.426.32.528.69.101.365.011.738-.263 1.11l-.44.392c-.003.004-.005.01-.009.013-1.434.99-5.311 2.172-7.019 2.038a.522.522 0 10-.08 1.043c.108.008.222.012.343.012 2.291 0 6.826-1.442 7.963-2.772l5.701-5.088a.933.933 0 01.685-.235.96.96 0 01.665.329.967.967 0 01.244.7.942.942 0 01-.32.655zM10.278 7.642h1.159v10.56c0 .289.234.523.523.523h11.082a.523.523 0 00.523-.523V7.642h1.16a.523.523 0 00.315-.941l-7.316-5.488a.524.524 0 00-.633.004L9.96 6.705a.523.523 0 00.32.937zm7.136-5.353l5.743 4.307h-.114a.523.523 0 00-.523.523v10.56H12.482V7.119a.523.523 0 00-.523-.523h-.144l5.598-4.307z" fill="#3E9E57"/><path d="M15.497 15.188h4.009a.523.523 0 00.523-.523V8.667a.523.523 0 00-.523-.523h-4.01a.523.523 0 00-.522.523v5.998c0 .289.234.523.523.523zm.523-5.998h2.963v4.952H16.02V9.19z" fill="#3E9E57"/></svg>