<svg width="35" height="35" fill="none" xmlns="http://www.w3.org/2000/svg"><path d="M29.172 5.654H5.829a.525.525 0 00-.525.525v9.879c0 .29.235.525.525.525h1.8V28.82c0 .29.235.525.525.525H27.07c.29 0 .525-.235.525-.525V16.583h1.577c.29 0 .525-.235.525-.525v-9.88a.525.525 0 00-.525-.524zm-2.627 22.642H8.679V16.583h5.639c.175 0 .34-.088.437-.234l2.857-4.285 2.857 4.285a.525.525 0 00.437.234h5.639v11.713zm2.102-12.763h-7.46l-3.138-4.706c-.195-.292-.68-.292-.874 0l-3.138 4.706H6.354v-8.83h22.293v8.83z" fill="#3E9E57"/><path d="M20.032 18.333h-4.841a.525.525 0 00-.525.525v7.264c0 .29.235.525.525.525h4.842c.29 0 .525-.235.525-.525v-7.264a.526.526 0 00-.526-.525zm-.525 7.264h-3.791v-6.214h3.792v6.214z" fill="#3E9E57"/></svg>