<svg width="30" height="30" fill="none" xmlns="http://www.w3.org/2000/svg"><path d="M25.038 21.846c-.59.59-.167 1.6.662 1.6.829 0 1.254-1.009.663-1.6a.937.937 0 00-1.325 0zm2.96-1.634a.5.5 0 01-.707.707 2.248 2.248 0 00-3.181 0 .5.5 0 11-.707-.707 3.247 3.247 0 014.595 0zm1.502-1.003a.498.498 0 01-.354-.146 4.87 4.87 0 00-6.892 0 .5.5 0 11-.707-.707 5.87 5.87 0 018.306 0 .5.5 0 01-.353.853zm-4.071 6.256a3.002 3.002 0 01-3 3H6.249a3.002 3.002 0 01-3-3v-15.15L.773 11.922a.5.5 0 11-.544-.839l11.648-7.557a4.446 4.446 0 014.834 0l2.908 1.887V2.536a.5.5 0 010-1h5.311a.5.5 0 010 1h-.063V5.91a.5.5 0 01-1 0V2.536h-3.248V6.06l7.74 5.022c.418.271.223.92-.272.92-.22 0 .571.466-11.92-7.638a3.445 3.445 0 00-3.746 0L4.25 9.666v15.8a2 2 0 001.999 1.999h11.87v-8.28c0-.602-.489-1.092-1.09-1.092h-5.44c-.602 0-1.092.49-1.092 1.092v6.218a.5.5 0 11-1 0v-6.218c0-1.153.939-2.092 2.092-2.092h5.44c1.152 0 2.09.939 2.09 2.092v8.28h3.312c1.102 0 2-.897 2-2a.5.5 0 01.999 0zm-.5-13.37a.5.5 0 01.5.5v2.03a.5.5 0 01-1 0v-2.03a.5.5 0 01.5-.5z" fill="#3E9E57"/></svg>