<svg width="35" height="35" fill="none" xmlns="http://www.w3.org/2000/svg"><path d="M33.535 7.12a.525.525 0 00-.525-.525H1.989a.525.525 0 00-.524.525v9.058c0 .025.004.05.007.073-.003.024-.007.049-.007.074V27.88c0 .29.235.525.525.525h31.019c.29 0 .526-.235.526-.525V16.27c0-.015-.003-.03-.005-.046.002-.015.005-.03.005-.046V7.12zm-14.388.525h13.338v8.008h-4.208L25.74 11.38a.526.526 0 00-.902 0l-2.537 4.273h-4.208V7.645h1.052zm-16.632 0h14.529v8.008h-4.347l-2.536-4.273a.525.525 0 00-.903 0l-2.535 4.273H2.515V7.645zm0 9.058h4.507a.525.525 0 00.451-.257l2.237-3.769 2.237 3.769c.095.16.266.257.452.257h4.645v10.652H2.514V16.703zm15.579 10.652V16.703h4.507a.525.525 0 00.451-.257l2.238-3.769 2.236 3.769c.095.16.267.257.452.257h4.507v10.652H18.094z" fill="#fff"/><path d="M27.192 19.683h-3.804a.525.525 0 00-.525.525v4.004c0 .29.236.525.525.525h3.804c.29 0 .525-.235.525-.525v-4.004a.525.525 0 00-.525-.525zm-.525 4.004h-2.754v-2.954h2.754v2.954zm-14.985-4.005H7.878a.525.525 0 00-.525.525v4.005c0 .29.234.525.525.525h3.804c.29 0 .525-.235.525-.525v-4.005a.525.525 0 00-.525-.525zm-.525 4.005H8.403v-2.954h2.754v2.954z" fill="#fff"/></svg>