<svg width="19" height="19" fill="none" xmlns="http://www.w3.org/2000/svg"><path d="M9.75 5.008A4.493 4.493 0 005.258 9.5c0 2.5 1.992 4.492 4.492 4.492A4.493 4.493 0 0014.242 9.5c0-2.46-2.031-4.492-4.492-4.492zm0 7.422A2.926 2.926 0 016.82 9.5c0-1.602 1.29-2.89 2.93-2.89a2.882 2.882 0 012.89 2.89c0 1.64-1.288 2.93-2.89 2.93zm5.703-7.578a1.05 1.05 0 00-1.055-1.055 1.05 1.05 0 00-1.054 1.055 1.05 1.05 0 001.054 1.054 1.05 1.05 0 001.055-1.054zm2.969 1.054c-.078-1.406-.39-2.656-1.406-3.672C16 1.22 14.75.906 13.344.828 11.898.75 7.563.75 6.117.828c-1.406.078-2.617.39-3.672 1.406C1.43 3.25 1.117 4.5 1.04 5.906c-.078 1.446-.078 5.782 0 7.227.078 1.406.39 2.617 1.406 3.672C3.5 17.82 4.711 18.133 6.117 18.21c1.446.078 5.781.078 7.227 0 1.406-.078 2.656-.39 3.672-1.406 1.015-1.055 1.328-2.266 1.406-3.672.078-1.445.078-5.781 0-7.227zm-1.875 8.75c-.274.781-.899 1.367-1.64 1.68-1.173.469-3.907.352-5.157.352-1.29 0-4.023.117-5.156-.352a2.962 2.962 0 01-1.68-1.68c-.469-1.133-.352-3.867-.352-5.156 0-1.25-.117-3.984.352-5.156a3.013 3.013 0 011.68-1.64c1.133-.47 3.867-.352 5.156-.352 1.25 0 3.984-.118 5.156.351.742.274 1.328.899 1.64 1.64.47 1.173.352 3.907.352 5.157 0 1.29.118 4.023-.351 5.156z" fill="#fff"/></svg>