<svg width="160" height="16" fill="none" xmlns="http://www.w3.org/2000/svg"><path d="M5.497 14.477a.639.639 0 001.066 0c3.993-5.743 4.73-6.344 4.73-8.477A5.251 5.251 0 006.044.75 5.234 5.234 0 00.794 6c0 2.133.712 2.734 4.704 8.477zm.547-6.29A2.16 2.16 0 013.856 6c0-1.203.957-2.188 2.188-2.188 1.203 0 2.187.985 2.187 2.188 0 1.23-.984 2.188-2.187 2.188zM20.178 13V3.2h2.156v4.284L26.311 3.2h2.604l-3.99 4.158L29.095 13h-2.59l-3.038-4.172-1.134 1.176V13H20.18zm10.507 0l4.2-9.87h1.988l4.2 9.87H38.82l-.896-2.198H33.78L32.883 13h-2.198zm3.864-4.102h2.604L35.851 5.72 34.55 8.898zM43.706 13V3.2h2.156v4.284L49.838 3.2h2.604l-3.99 4.158L52.624 13h-2.59l-3.038-4.172-1.134 1.176V13h-2.156zm15.627 2.044v-3.99h.925a12.29 12.29 0 00.825-2.814c.169-.99.253-2.287.253-3.892V3.2h7.126v7.854h1.175l-.28 3.99h-1.805V13h-6.133l-.14 2.044h-1.946zm6.972-9.898h-2.898v.994c0 1.848-.293 3.486-.881 4.914h3.78V5.146zm14.442 6.552c-.99.98-2.23 1.47-3.724 1.47-1.493 0-2.735-.49-3.724-1.47-.98-.98-1.47-2.18-1.47-3.598 0-1.41.495-2.604 1.484-3.584.999-.99 2.245-1.484 3.738-1.484 1.493 0 2.73.49 3.71 1.47.99.98 1.484 2.18 1.484 3.598 0 1.41-.5 2.609-1.498 3.598zm-5.824-1.414c.56.597 1.27.896 2.128.896.859 0 1.563-.294 2.114-.882.55-.597.826-1.33.826-2.198 0-.859-.28-1.587-.84-2.184-.56-.597-1.27-.896-2.128-.896-.859 0-1.563.299-2.114.896-.55.588-.826 1.316-.826 2.184 0 .859.28 1.587.84 2.184zm12.51-5.138v1.708h2.59c1.092 0 1.937.275 2.534.826.607.541.91 1.279.91 2.212 0 .99-.322 1.755-.966 2.296-.644.541-1.54.812-2.688.812h-4.536V3.2h7.518v1.946h-5.362zm2.366 3.5h-2.366v2.408h2.38c1 0 1.498-.415 1.498-1.246 0-.775-.504-1.162-1.512-1.162zM96.364 13V3.2h4.004c1.158 0 2.072.313 2.744.938.672.625 1.008 1.451 1.008 2.478 0 1.092-.373 1.941-1.12 2.548-.746.597-1.694.896-2.842.896H98.52V13h-2.156zm2.156-4.858h1.708c.532 0 .948-.14 1.246-.42.308-.28.462-.644.462-1.092 0-.476-.154-.84-.462-1.092-.308-.261-.737-.392-1.288-.392H98.52v2.996zM105.996 13l4.2-9.87h1.988l4.2 9.87h-2.254l-.896-2.198h-4.144L108.194 13h-2.198zm3.864-4.102h2.604l-1.302-3.178-1.302 3.178zM121.298 13V5.188h-2.982V3.2h8.12v1.988h-2.982V13h-2.156zm7.916 0V3.2h2.156v3.332h2.086c1.12 0 1.998.29 2.632.868.635.57.952 1.34.952 2.31 0 1.008-.336 1.81-1.008 2.408-.662.588-1.568.882-2.716.882h-4.102zm4.06-4.62h-1.904v2.674h1.918c1.074 0 1.61-.457 1.61-1.372 0-.868-.541-1.302-1.624-1.302zm11.127 4.788c-1.437 0-2.637-.485-3.598-1.456-.952-.98-1.428-2.184-1.428-3.612 0-1.419.481-2.618 1.442-3.598s2.184-1.47 3.668-1.47c.849 0 1.563.14 2.142.42.579.27 1.129.663 1.652 1.176l-1.288 1.484c-.42-.383-.817-.658-1.19-.826-.364-.177-.807-.266-1.33-.266-.821 0-1.503.299-2.044.896-.532.588-.798 1.316-.798 2.184 0 .859.266 1.587.798 2.184.541.597 1.223.896 2.044.896.523 0 .975-.093 1.358-.28.383-.187.789-.476 1.218-.868l1.372 1.47c-.532.57-1.111.99-1.736 1.26-.616.27-1.377.406-2.282.406zm14.62-9.968V13h-2.156V9.864h-1.694l-2.1 3.136h-2.52l2.394-3.5c-1.4-.523-2.1-1.545-2.1-3.066 0-1.008.327-1.797.98-2.366.663-.579 1.568-.868 2.716-.868h4.48zm-4.34 4.76h2.184V5.146h-2.142c-.532 0-.947.121-1.246.364-.299.243-.448.597-.448 1.064 0 .42.145.756.434 1.008.299.252.705.378 1.218.378z" fill="#219653"/></svg>