<svg width="10" height="12" fill="none" xmlns="http://www.w3.org/2000/svg"><path d="M1.467 8.648a5.085 5.085 0 01-1.37-2.593A5.126 5.126 0 01.38 3.128 5.051 5.051 0 012.221.854 4.955 4.955 0 015 0c.99 0 1.956.297 2.779.854A5.051 5.051 0 019.62 3.128c.378.926.477 1.945.283 2.927a5.085 5.085 0 01-1.37 2.593l-3.139 3.186a.553.553 0 01-.788 0l-3.14-3.186zm6.283-.793a3.955 3.955 0 001.064-2.017 3.987 3.987 0 00-.221-2.276A3.929 3.929 0 007.16 1.794a3.854 3.854 0 00-4.322 0 3.929 3.929 0 00-1.432 1.768 3.987 3.987 0 00-.221 2.276c.15.764.52 1.466 1.064 2.017L5 10.64l2.75-2.785zM5 7.32c-.59 0-1.155-.237-1.571-.66a2.266 2.266 0 01-.651-1.59c0-.598.234-1.17.65-1.592a2.202 2.202 0 013.143 0 2.269 2.269 0 01.001 3.183c-.417.422-.983.66-1.572.66zm0-1.125c.295 0 .577-.119.786-.33a1.133 1.133 0 000-1.592 1.104 1.104 0 00-1.572 0 1.133 1.133 0 000 1.592c.209.211.491.33.786.33z" fill="#C2C2C2"/></svg>