<svg width="30" height="36" fill="none" xmlns="http://www.w3.org/2000/svg"><path d="M29.702 35.307H.925V9.291L15.36 0l14.342 9.291v26.016zM3.998 32.241h22.724V10.964L15.36 3.624l-11.362 7.34V32.24z" fill="#fff"/><path d="M17.967 26.852h-4.19v-7.805h3.073v4.832h1.117v2.973z" fill="#fff"/><path d="M15.36 20.534c-2.421 0-4.47-1.951-4.47-4.46s1.955-4.46 4.47-4.46c2.421 0 4.47 1.951 4.47 4.46s-2.049 4.46-4.47 4.46zm0-5.76c-.745 0-1.397.65-1.397 1.393s.652 1.394 1.397 1.394 1.397-.65 1.397-1.394c0-.836-.652-1.394-1.397-1.394z" fill="#fff"/></svg>