<svg width="61" height="59" fill="none" xmlns="http://www.w3.org/2000/svg"><g clip-path="url(#clip0)" fill="#fff"><path d="M44.702 35.307H15.925V9.291L30.36 0l14.342 9.291v26.016zm-25.704-3.066h22.724V10.964L30.36 3.624l-11.362 7.34V32.24z"/><path d="M32.967 26.852h-4.19v-7.805h3.073v4.832h1.117v2.973z"/><path d="M30.36 20.534c-2.421 0-4.47-1.951-4.47-4.46s1.955-4.46 4.47-4.46c2.421 0 4.47 1.951 4.47 4.46s-2.049 4.46-4.47 4.46zm0-5.76c-.745 0-1.397.65-1.397 1.393s.652 1.394 1.397 1.394 1.397-.65 1.397-1.394c0-.836-.652-1.394-1.397-1.394zM4.936 58.814H0V50.36h2.142v6.504h2.794v1.951zm1.21-8.454h2.142v8.454H6.146V50.36zm8.289 1.765h-3.073v1.673h2.98v1.858h-2.98v3.159H9.22v-8.548h5.215v1.858zm6.147 0h-3.166v1.3h3.073v1.766h-2.98v1.673h3.166v1.858H15.46v-8.455h5.215v1.858h-.093zm4.749 3.995c.652.836 1.304.929 1.677.929.466 0 .838-.279.838-.743 0-.65-.559-.837-1.117-1.023-.932-.185-2.608-.836-2.608-2.601 0-1.766 1.49-2.509 2.887-2.509 1.024 0 2.049.465 2.7 1.58l-1.396.836c-.373-.465-.745-.65-1.211-.65-.466 0-.838.185-.838.65s.559.65 1.024.743c1.304.372 2.794 1.022 2.701 2.974-.093 1.765-1.583 2.508-3.073 2.508-.932 0-2.235-.371-2.98-1.765l1.396-.93zm11.083-5.76v1.857h-1.956v6.597h-2.142v-6.597H30.36V50.36h6.054zm7.264 8.454h-2.421l-1.676-2.973h-.28v2.973H37.16V50.36h2.887c1.21 0 2.235.372 2.794 1.3.28.465.373 1.023.373 1.58 0 1.022-.56 1.952-1.677 2.323l2.142 3.252zm-3.632-4.738c.652 0 1.025-.465 1.025-.93 0-.464-.373-.929-1.025-.929h-.838v1.859h.838zm13.038.558c0 2.694-1.955 4.367-4.377 4.367-2.421 0-4.377-1.673-4.377-4.367 0-2.695 1.956-4.367 4.377-4.367 2.422-.093 4.377 1.672 4.377 4.367zm-4.377 2.416c1.118 0 2.235-.65 2.235-2.416s-1.117-2.416-2.235-2.416c-1.117 0-2.235.836-2.235 2.416s1.118 2.416 2.235 2.416zm8.288-3.253l.559-1.394 1.117-2.044h2.422l-2.049 3.717-.931 1.486v3.252h-2.235v-3.252l-.932-1.58-2.048-3.623h2.42l1.118 2.044.56 1.394z"/></g><defs><clipPath id="clip0"><path fill="#fff" d="M0 0h61v59H0z"/></clipPath></defs></svg>