<svg width="27" height="22" fill="none" xmlns="http://www.w3.org/2000/svg"><path opacity=".5" d="M22.594 18.266c0-.328-.188-.563-.516-.563s-.515.235-.515.563c0 .28.187.515.515.515s.516-.187.516-.515zm-14.532-.563a.542.542 0 00-.562.563c0 .28.234.515.563.515.28 0 .515-.187.515-.515-.047-.328-.234-.563-.515-.563zm5.485 0c-.235 0-.422.14-.422.375h.89a.456.456 0 00-.468-.375zm5.062 0c-.328 0-.515.235-.515.563 0 .28.187.515.515.515s.516-.187.516-.515-.188-.563-.516-.563zm4.97 1.219s0-.047-.048-.047h-.047c0-.047 0-.047-.047-.047l-.046.047h-.047v.047c-.047 0-.047.047-.047.047 0 .047 0 .047.047.047v.047c.047 0 .047.046.047.046h.093c.047 0 .047-.047.047-.047.047 0 .047 0 .047-.046v-.094zm-.095.094l.047.047h-.047l-.047-.094v.093h-.046v-.187h.047c.046 0 .046.047.046.047h.047c0 .047 0 .047-.047.047v.047zM27 2.796c0-1.218-1.031-2.25-2.25-2.25H2.25A2.25 2.25 0 000 2.797v16.5a2.22 2.22 0 002.25 2.25h22.5a2.25 2.25 0 002.25-2.25v-16.5zM3 9.36c0-3.562 2.906-6.468 6.469-6.468 1.265 0 2.531.375 3.61 1.078-3.423 2.765-3.423 8.015 0 10.781-1.079.703-2.345 1.125-3.61 1.125C5.906 15.875 3 12.969 3 9.359zm10.5 5.11c-3.328-2.578-3.328-7.594 0-10.219 3.281 2.625 3.281 7.64 0 10.219zm-6.703 3.56v1.078h-.375c0-.937.094-1.406-.375-1.406-.516 0-.422.563-.422 1.406H5.25c0-.937.094-1.406-.375-1.406-.563 0-.422.516-.422 1.406h-.375v-1.734h.375v.234a.648.648 0 01.516-.28c.234 0 .422.14.562.327a.683.683 0 01.61-.328c.421.047.656.281.656.703zm2.11-.656v1.734H8.53v-.187c-.094.14-.281.234-.515.234a.862.862 0 01-.891-.89c0-.516.375-.938.89-.938.235 0 .422.14.516.281v-.234h.375zm1.921 1.219c0 .656-1.031.703-1.547.375l.188-.328c.328.234.937.28.937-.047 0-.282-1.078 0-1.078-.703 0-.657.985-.657 1.453-.375l-.187.328c-.281-.188-.844-.235-.844.047 0 .328 1.078 0 1.078.703zm1.64.422c-.234.187-1.077.328-1.077-.516v-.75h-.329v-.375h.329v-.516h.421v.516h.61v.375h-.61v.75c0 .422.376.328.563.234l.094.282zm.61-.61c.14.516.656.516 1.031.235l.188.28c-.516.47-1.594.282-1.594-.655 0-.563.375-.938.844-.938s.844.328.844 1.078h-1.313zm2.766-1.031l-.094.375c-.14-.094-.61-.14-.61.375v.984h-.374v-1.734h.375v.234c.187-.28.515-.328.703-.234zm.515.89c0 .516.563.704.985.376l.187.328c-.515.422-1.547.234-1.547-.703 0-.891.985-1.125 1.547-.703l-.187.28c-.422-.28-.985-.14-.985.423zm3.141-.89v1.734h-.375v-.187c-.375.469-1.406.234-1.406-.656 0-.891.984-1.172 1.406-.657v-.234h.375zm1.547 0l-.094.375c-.187-.094-.61-.14-.61.375v.984h-.374v-1.734h.375v.234c.187-.328.61-.28.703-.234zm1.922-.656v2.39h-.375v-.187c-.375.469-1.407.234-1.407-.656 0-.891 1.032-1.172 1.407-.657v-.89h.375zm.328-3.563h-.094.235-.094v.235h-.047v-.235zm.328 5.813v.093c-.047 0-.047 0-.047.047 0 0-.047 0-.047.047h-.14l-.047-.047-.047-.047v-.14c0-.047 0-.047.047-.047 0-.047 0-.047.047-.047l.047-.047c.046 0 .046.047.093.047 0 0 .047 0 .047.047l.047.047v.047zm.14-5.813v.235h-.046v-.188l-.047.14h-.047l-.094-.14v.188h-.047v-.235h.094l.047.14.094-.14h.047zM24 9.36c0 3.61-2.953 6.516-6.516 6.47a6.372 6.372 0 01-3.562-1.079c3.422-2.766 3.375-8.016 0-10.781a6.372 6.372 0 013.562-1.078C21.047 2.89 24 5.797 24 9.359z" fill="#fff"/></svg>