<svg width="17" height="16" fill="none" xmlns="http://www.w3.org/2000/svg"><path d="M16.219.781l-3.125-.75c-.469-.093-.938.125-1.125.563L10.5 4c-.156.406-.063.875.281 1.125L12.47 6.5a10.775 10.775 0 01-5 5L6.094 9.812c-.25-.343-.719-.437-1.125-.28L1.562 11c-.406.188-.656.656-.562 1.094l.75 3.156c.094.438.469.75.938.75C10.561 16 17 9.625 17 1.719a.94.94 0 00-.781-.938zM2.719 15L2 11.906l3.344-1.437 1.875 2.281c3.218-1.531 4.968-3.281 6.5-6.5l-2.281-1.875 1.437-3.344 3.094.719C15.969 9.063 10.03 15 2.719 15z" fill="#fff"/></svg>