<svg width="80" height="80" fill="none" xmlns="http://www.w3.org/2000/svg"><path d="M71.163 7.643H8.838c-.66 0-1.194.535-1.194 1.194v62.325c0 .66.534 1.195 1.194 1.195h23.83a1.194 1.194 0 100-2.388H10.032v-18.45h12.22a1.194 1.194 0 100-2.389h-12.22V10.031h30.366v18.844a1.194 1.194 0 102.388 0V10.03H69.97v29.504H31.43a1.194 1.194 0 100 2.388h38.54v28.045H52.635L43.696 56.95a1.193 1.193 0 10-1.968 1.353l9.295 13.534c.223.324.591.517.984.517h19.157c.66 0 1.194-.535 1.194-1.194V8.837a1.195 1.195 0 00-1.195-1.194z" fill="#3E9E57"/></svg>