<svg width="80" height="80" fill="none" xmlns="http://www.w3.org/2000/svg"><path d="M22.872 15.97a2.248 2.248 0 100-4.496 2.248 2.248 0 000 4.496zm52.597 25.493L60.621 7.068a1.19 1.19 0 00-1.093-.718h-.001c-.476 0-.906.283-1.093.72l-14.76 34.36a1.192 1.192 0 001.093 1.661l12.886.017.088.003h.531v9.374l-2.932-.004h-.002a1.19 1.19 0 00-1.19 1.19l-.026 18.899c0 .658.531 1.191 1.19 1.193l8.434.014h.002a1.193 1.193 0 001.191-1.19l.02-18.903a1.19 1.19 0 00-1.19-1.192l-3.114-.004v-9.374l13.72.014h.001a1.191 1.191 0 001.093-1.665zM62.557 71.392l-6.052-.01.022-16.52 6.046.009-.016 16.52zM60.654 40.73V27.211a1.191 1.191 0 10-2.382 0v13.517h-.347a1.566 1.566 0 00-.087-.003l-11.264-.014L59.53 10.553l13.034 30.19-11.91-.013z" fill="#3E9E57"/><path d="M40.712 35.651h-8.58a4.312 4.312 0 01-4.308-4.307c0-1.841.956-5.638 1.88-9.31.743-2.955 1.445-5.746 1.706-7.697.273-2.021-.361-4.033-1.785-5.661-1.668-1.907-4.192-3.046-6.752-3.046-2.564 0-5.092 1.14-6.758 3.05-1.422 1.628-2.054 3.639-1.778 5.657.267 1.98 1.01 4.808 1.797 7.802.956 3.632 1.943 7.387 1.943 9.206a4.312 4.312 0 01-4.308 4.307H5.035a1.19 1.19 0 00-1.192 1.191V47.13c0 .02-.005.038-.005.058 0 .02.005.038.005.058v25.138a1.19 1.19 0 001.192 1.19h35.677a1.19 1.19 0 001.19-1.19v-35.54a1.19 1.19 0 00-1.19-1.193zM13.77 38.033c3.689 0 6.69-3 6.69-6.689 0-2.126-.982-5.859-2.021-9.811-.735-2.793-1.494-5.681-1.742-7.516-.181-1.329.249-2.668 1.212-3.771 1.203-1.378 3.106-2.234 4.965-2.234 1.854 0 3.755.855 4.957 2.232.965 1.104 1.398 2.444 1.218 3.776-.243 1.819-.961 4.674-1.656 7.434-1.003 3.988-1.95 7.754-1.95 9.891a6.697 6.697 0 006.69 6.69h7.389v7.962H6.226v-7.963h7.544zM6.226 71.191V48.378h33.296v22.813H6.226z" fill="#3E9E57"/></svg>