<svg width="30" height="30" fill="none" xmlns="http://www.w3.org/2000/svg"><path d="M29.5 15c0 8.008-6.492 14.5-14.5 14.5S.5 23.008.5 15 6.992.5 15 .5 29.5 6.992 29.5 15z" stroke="#fff"/><path d="M21.522 11.83l.006-.006-2.111 9.947c-.078.347-.188.413-.208.422-.017.008-.123.043-.388-.102l-3.724-2.745-.34-.25-.304.293-1.656 1.595.19-2.704 6.798-6.142c.108-.096.268-.275.277-.53a.604.604 0 00-.411-.588.89.89 0 00-.49-.02c-.15.033-.302.098-.447.194l-8.389 5.281-3.48-1.085h-.001a1.15 1.15 0 01-.16-.064 1.65 1.65 0 01.362-.185L21.5 9.567c.213-.075.305-.017.33.008.03.03.136.178.046.598l-.355 1.657zm-2.133.144h-.005.005zm-.257-.595l-.007.007a.04.04 0 01.007-.007zm-12.54 4.033v-.002.002z" stroke="#fff"/></svg>