<svg width="27" height="22" fill="none" xmlns="http://www.w3.org/2000/svg"><path opacity=".5" d="M22.031 9.875l-.14-.656c-.094.281-.282.75-.235.703 0 0-.61 1.64-.75 2.062h1.547c-.094-.375-.422-2.109-.422-2.109zM27 2.75C27 1.531 25.969.5 24.75.5H2.25A2.25 2.25 0 000 2.75v16.5a2.22 2.22 0 002.25 2.25h22.5A2.25 2.25 0 0027 19.25V2.75zM7.125 14.563H5.156L3.47 8.233c-.61-.375-1.266-.609-1.969-.796V7.25h3.047c.422.047.75.188.844.656l.656 3.328.187.985L8.11 7.25h1.97l-2.954 7.313zm4.406 0H9.656l1.172-7.313h1.922l-1.219 7.313zm6.563-2.391c0 1.5-1.266 2.484-3.282 2.484-.843 0-1.64-.187-2.062-.375l.234-1.64.235.093c.656.282 1.031.422 1.781.422.563 0 1.125-.234 1.125-.75 0-.281-.234-.515-.984-.89-.704-.329-1.641-.938-1.641-1.97 0-1.405 1.313-2.39 3.188-2.39.75 0 1.312.14 1.687.282l-.234 1.593-.188-.094a3.529 3.529 0 00-1.406-.28c-.75 0-1.078.327-1.078.655 0 .329.422.563 1.078.891 1.078.516 1.594 1.125 1.547 1.969zm6.656 2.39h-1.781s-.14-.843-.188-1.078h-2.437c-.094.188-.375 1.079-.375 1.079h-2.016l2.813-6.704c.187-.468.515-.609.984-.609h1.453l1.547 7.313z" fill="#fff"/></svg>