<svg width="30" height="30" fill="none" xmlns="http://www.w3.org/2000/svg"><path d="M3.33 23.95l.082-.244-.152-.208A14.39 14.39 0 01.5 15C.5 7.004 7.002.5 14.996.5h.008C22.998.5 29.5 7.005 29.5 15s-6.502 14.5-14.496 14.5a14.37 14.37 0 01-7.976-2.396l-.2-.132-.228.073-4.826 1.543L3.33 23.95z" stroke="#fff"/><path d="M15.726 21.708h0c1.707.708 2.783 1.015 3.512 1.13.708.113 1.095.046 1.445-.028a4.77 4.77 0 001.59-.693c.507-.343.858-.735.988-1.102a5.11 5.11 0 00.276-1.231 2.51 2.51 0 00.004-.436 1.034 1.034 0 00-.086-.051 5.274 5.274 0 00-.25-.125c-.076-.037-.166-.08-.278-.136-.22-.11-.863-.428-1.501-.736-.658-.318-1.26-.6-1.428-.658l-.013-.005h0c-.134-.05-.219-.05-.272-.036-.046.012-.123.048-.22.184v.001l-.168.235c-.358.505-.73 1.028-1.044 1.367l-.003.003c-.447.475-1.12.49-1.613.286h-.001l-.135-.055c-.584-.236-1.92-.776-3.522-2.203-1.358-1.208-2.27-2.701-2.532-3.143l-.003-.004h0c-.19-.328-.227-.652-.124-.955.082-.238.243-.425.333-.53l.016-.019c.12-.15.238-.276.346-.392l.055-.058c.09-.096.173-.184.258-.282l.034-.038c.199-.23.275-.317.377-.535l.004-.008.004-.009a.193.193 0 00.015-.127.883.883 0 00-.084-.238l-.002-.003h0c-.08-.167-.55-1.311-.945-2.267l-.413-1c-.136-.327-.216-.388-.232-.398-.014-.01-.04-.026-.28-.036H9.83h0l-.04-.002a8.403 8.403 0 00-.437-.014c-.5 0-.945.15-1.177.388l7.55 13.96zm0 0c-3.916-1.622-6.558-5.426-7.154-6.284m7.154 6.284l-7.154-6.284m0 0a5.077 5.077 0 00-.104-.148m.104.148l-.104-.148m0 0l-.017-.024c-.13-.178-.531-.724-.909-1.468-.403-.795-.757-1.771-.757-2.735 0-1.886.912-2.813 1.35-3.26.015-.013.028-.027.041-.04l.292 7.527z" stroke="#fff"/></svg>